<svg xmlns="http://www.w3.org/2000/svg" data-name="Layer 1" viewBox="0 0 24 24"><defs><linearGradient id="a" x1="-.069" x2="25.378" y1="11.031" y2="13.074" gradientUnits="userSpaceOnUse"><stop offset="0" stop-color="#cc2fa9"/><stop offset="1" stop-color="#823cde"/></linearGradient></defs><path fill="url(#a)" d="M21,0H3A3,3,0,0,0,0,3V21a3,3,0,0,0,3,3H21a3,3,0,0,0,3-3V3A3,3,0,0,0,21,0Zm1,20a1,1,0,0,1-2,0V12a1,1,0,0,0-1-1H5.414l4.293,4.293a1,1,0,0,1,0,1.414,1.022,1.022,0,0,1-1.414,0l-6-6a1.015,1.015,0,0,1,0-1.414l6-6A1,1,0,1,1,9.707,4.707L5.414,9H19a3,3,0,0,1,3,3Z"/></svg>